<svg xmlns="http://www.w3.org/2000/svg" width="240" height="336" viewBox="0 0 240 336" role="img" aria-label="6 of diamonds"><rect x="1" y="1" width="238" height="334" rx="16" fill="#f7faff" stroke="#a6b9d3" stroke-width="2"/><rect x="9" y="9" width="222" height="318" rx="11" fill="none" stroke="#cfdded"/><text x="27" y="39" text-anchor="middle" font-family="Verdana,sans-serif" font-weight="bold" font-size="28" fill="#b62e57">6</text><path d="M0-30 22 0 0 30-22 0Z" fill="#b62e57" transform="translate(27 60) scale(0.3)"/><g transform="translate(240 336) rotate(180)"><text x="27" y="39" text-anchor="middle" font-family="Verdana,sans-serif" font-weight="bold" font-size="28" fill="#b62e57">6</text><path d="M0-30 22 0 0 30-22 0Z" fill="#b62e57" transform="translate(27 60) scale(0.3)"/></g><path d="M0-30 22 0 0 30-22 0Z" fill="#b62e57" transform="translate(78 89) scale(0.64)"/><path d="M0-30 22 0 0 30-22 0Z" fill="#b62e57" transform="translate(162 89) scale(0.64)"/><path d="M0-30 22 0 0 30-22 0Z" fill="#b62e57" transform="translate(78 168) scale(0.64)"/><path d="M0-30 22 0 0 30-22 0Z" fill="#b62e57" transform="translate(162 168) scale(0.64)"/><path d="M0-30 22 0 0 30-22 0Z" fill="#b62e57" transform="translate(78 247) scale(0.64) rotate(180)"/><path d="M0-30 22 0 0 30-22 0Z" fill="#b62e57" transform="translate(162 247) scale(0.64) rotate(180)"/></svg>
