<svg xmlns="http://www.w3.org/2000/svg" width="240" height="336" viewBox="0 0 240 336"><defs><pattern id="deco" width="40" height="40" patternUnits="userSpaceOnUse"><path d="M0 20 20 0 40 20 20 40Z M10 20 20 10 30 20 20 30Z" fill="none" stroke="#7f9ec6" stroke-width=".8"/></pattern><linearGradient id="blue" x2="1" y2="1"><stop stop-color="#244777"/><stop offset="1" stop-color="#0c1836"/></linearGradient></defs><rect x="1" y="1" width="238" height="334" rx="16" fill="#f7faff" stroke="#a6b9d3" stroke-width="2"/><rect x="10" y="10" width="220" height="316" rx="10" fill="url(#blue)"/><rect x="18" y="18" width="204" height="300" rx="6" fill="url(#deco)"/><path d="M30 70V30H70 M170 30H210V70 M210 266V306H170 M70 306H30V266" fill="none" stroke="#d7e4f5" stroke-width="3"/><path d="M120 76 183 168 120 260 57 168Z" fill="#132a50" stroke="#adc7e9" stroke-width="3"/><path d="M120 97 168 168 120 239 72 168Z" fill="none" stroke="#adc7e9"/><path d="M120 127 148 168 120 209 92 168Z" fill="#d7e4f5"/><path d="M120 142 138 168 120 194 102 168Z" fill="#41669b"/></svg>